<svg xmlns="http://www.w3.org/2000/svg" viewBox="0 0 1200 1600" role="img" aria-label="书卷手写预览占位图">
  <defs>
    <linearGradient id="sky" x1="0" y1="0" x2="1200" y2="1600" gradientUnits="userSpaceOnUse">
      <stop stop-color="#f7fbff"/>
      <stop offset="0.52" stop-color="#e7f4ff"/>
      <stop offset="1" stop-color="#d8ecff"/>
    </linearGradient>
    <linearGradient id="paper" x1="252" y1="184" x2="936" y2="1340" gradientUnits="userSpaceOnUse">
      <stop stop-color="#ffffff"/>
      <stop offset="0.68" stop-color="#f5fbff"/>
      <stop offset="1" stop-color="#e1f1ff"/>
    </linearGradient>
    <linearGradient id="ink" x1="210" y1="190" x2="990" y2="1325" gradientUnits="userSpaceOnUse">
      <stop stop-color="#0f66cc"/>
      <stop offset="1" stop-color="#083b82"/>
    </linearGradient>
    <filter id="shadow" x="-20%" y="-20%" width="140%" height="140%">
      <feDropShadow dx="0" dy="34" stdDeviation="34" flood-color="#0b3e7b" flood-opacity="0.18"/>
    </filter>
    <pattern id="grid" width="48" height="48" patternUnits="userSpaceOnUse">
      <path d="M48 0H0v48" fill="none" stroke="#b8d8f4" stroke-width="1" opacity="0.35"/>
    </pattern>
  </defs>
  <rect width="1200" height="1600" fill="url(#sky)"/>
  <rect width="1200" height="1600" fill="url(#grid)" opacity="0.55"/>
  <path d="M160 1220c155 106 369 139 598 98 164-30 286-95 372-192v474H160v-380Z" fill="#c8e4fb" opacity="0.38"/>
  <g filter="url(#shadow)">
    <path d="M304 164h492c99 0 180 81 180 180v870c0 99-81 180-180 180H364c-77 0-140-63-140-140V244c0-44 36-80 80-80Z" fill="url(#paper)" stroke="#0e5fbe" stroke-width="18"/>
    <path d="M784 164c-92 0-166 74-166 166v924c0 77-63 140-140 140h326c95 0 172-77 172-172V344c0-99-80-180-192-180Z" fill="#edf8ff" stroke="#0e5fbe" stroke-width="18"/>
    <path d="M326 354h330M326 446h284M326 538h344M326 630h250M326 722h316M326 814h272M326 906h226" fill="none" stroke="#9bc8f0" stroke-width="14" stroke-linecap="round"/>
    <path d="M722 356h132M722 450h126M722 544h96M722 638h128M722 732h104M722 826h122" fill="none" stroke="#b6d8f5" stroke-width="13" stroke-linecap="round"/>
    <path d="M304 1152c176-36 274-108 354-250 78-137 126-306 312-350" fill="none" stroke="url(#ink)" stroke-width="42" stroke-linecap="round"/>
    <path d="M844 518l144-52-43 145-170 206-102 42 34-108 137-233Z" fill="#ffffff" stroke="#0b4c99" stroke-width="22" stroke-linejoin="round"/>
    <path d="M704 748l126 85" stroke="#0b4c99" stroke-width="20" stroke-linecap="round"/>
    <path d="M376 1046c88 26 186 17 294-30 96-42 173-44 232-2" fill="none" stroke="#0b4c99" stroke-width="18" stroke-linecap="round" opacity="0.72"/>
  </g>
  <g fill="#0b4c99" opacity="0.82">
    <path d="M202 236h50v10h-50zM202 266h96v10h-96zM202 296h76v10h-76z"/>
    <path d="M954 1430h90v12h-90zM916 1460h128v12H916z"/>
  </g>
</svg>
